<svg id='branch' width="252" height="61" viewBox="0 0 252 61" fill="none" xmlns="http://www.w3.org/2000/svg">
<path d="M37.8367 15.1043C38.0234 10.8996 38.6714 5.99215 40.3079 2.03246C41.0053 0.344004 43.0371 -0.576475 44.0475 1.07385C45.7004 3.76448 47.3258 14.7993 47.2105 18.1218C47.1501 19.8701 46.3264 20.8832 46.2825 21.6403C46.1891 23.2688 46.6229 25.8505 46.6284 27.6316L53.8112 21.4224C57.8583 18.9987 61.9109 15.9159 66.9411 16.7492C64.1075 25.3658 55.6673 29.941 49.3686 35.8124C48.4131 35.7688 46.4088 36.4006 46.0738 37.441C47.562 37.4246 49.0172 37.1033 50.4669 36.9017C52.4054 37.5281 59.2696 38.1 59.8023 35.2678C70.6258 32.6425 79.6646 27.6098 88.9066 21.6512C90.1915 22.8658 92.13 20.2677 93.2942 19.8375C94.1124 19.5379 95.6445 19.8211 96.5945 19.4725C96.6494 19.9028 96.3474 20.1425 96.5945 21.1065C96.6714 21.4115 96.5396 21.8473 96.6 22.1959C97.3084 21.88 97.9893 21.624 98.7911 21.6512C98.9723 21.6566 99.159 21.6512 99.3402 21.6512L99.3402 22.1959C97.8465 21.8691 98.2639 23.3451 97.6928 24.3745C97.0942 24.8429 96.5011 24.9028 96.5945 26.0085C92.0202 27.5553 86.4904 29.6033 82.0259 31.4388C80.5157 32.0597 74.9749 34.3691 74.0798 34.9954C73.8053 35.186 73.1573 35.7743 73.8053 35.8124C77.2319 36.1283 80.5761 35.4039 83.9643 35.2678C83.9643 35.9595 88.1707 36.0412 88.9725 36.0303C89.7742 36.0194 93.2777 36.2917 92.7505 34.7231C93.1349 34.6904 94.3979 36.0303 94.9471 34.1784C105.221 33.0891 113.415 26.9671 122.58 22.6425C127.286 20.4203 132.003 18.5466 136.989 16.771C137.137 16.5967 136.736 15.1806 136.676 15.1152C136.423 14.8593 130.405 16.2754 129.532 16.4715C121.135 18.3669 112.487 21.2264 104.277 23.8298C104.118 23.3015 100.175 22.3974 101.334 21.6512C101.586 21.4878 102.278 22.027 102.08 21.112C99.8289 21.4932 99.6971 18.6229 97.6928 18.3832L97.6928 15.6599C98.0278 15.442 98.4671 15.3386 98.7911 15.1152L99.6093 17.8222C102.404 16.5314 101.284 16.1664 100.438 14.0259C116.336 5.02265 142.942 1.60762 159.668 10.5619C161.596 11.5913 169.328 17.1468 169.85 18.9115C171.508 24.527 157.752 19.7612 155.566 19.5325C147.609 18.6991 129.197 25.2351 121.47 28.6283C120.63 28.9987 119.417 29.4181 119.109 30.3658C120.383 30.4094 121.679 30.3277 122.953 30.3658C124.562 30.4257 126.05 29.7013 126.528 31.4606L126.792 30.3712C128.324 31.0738 130.136 30.3712 131.19 30.3712C150.514 30.295 167.884 39.3418 186.472 29.3745C191.194 26.8418 194.687 23.3669 198.992 20.551C210.392 13.1054 220.09 9.93551 233.873 9.66862L234.692 10.2078L234.972 9.66862C235.153 9.66862 235.34 9.66862 235.521 9.66862C235.395 10.698 236.696 11.6185 237.454 11.8527C237.789 11.9562 237.432 10.1098 238.816 10.7579L238.283 12.6752C240.502 12.7405 241.501 15.137 241.561 17.2884L240.018 16.8745L238.272 18.9224C239.326 19.1131 239.985 18.0619 240.891 17.9039C241.666 17.7678 242.05 18.3941 242.116 18.3778L221.628 31.0085C208.723 37.7405 193.775 37.5444 179.514 37.9856L172.925 37.4464C173.457 38.6011 175.583 38.7917 176.769 39.0749C184.989 41.0303 193.094 43.6882 201.365 45.4529C204.857 46.1937 208.454 46.3353 211.908 47.2558C209.964 50.4094 207.482 51.3081 204.099 52.3048C199.788 53.5793 193.896 54.2438 189.393 54.3309C188.229 53.2471 186.252 53.9551 184.748 53.7645C183.556 53.612 182.551 52.2013 180.607 53.2416C170.036 50.9649 165.885 47.1305 156.994 42.3484L156.731 39.6686C155.544 40.5074 154.479 39.38 153.315 39.2274C152.711 39.1457 152.145 39.6414 152.046 39.6251C148.96 39.0967 146.55 37.6044 143.601 36.8364C136.786 35.0553 129.422 34.4671 122.635 34.1566C121.778 34.1185 120.63 34.1294 120.196 35.0063C119.576 36.2699 122.574 35.3658 122.832 36.8418C129.4 39.625 140.679 45.0771 145.956 49.7394C147.631 51.2155 148.142 52.8386 145.726 53.7863C136.072 57.5717 120.427 42.637 110.976 39.7776C102.036 37.076 96.1936 39.9028 87.5118 40.7035C75.7712 41.7874 64.7829 41.0575 53.2181 41.5532C52.021 41.6022 50.5328 41.5041 49.3576 41.2536C48.7701 43.9823 50.8897 42.4954 52.8941 42.9203C55.2719 43.4268 59.4892 45.3222 62.5315 46.1556L64.1789 46.7002C64.3491 46.7438 64.5578 46.6566 64.728 46.7002C65.667 48.3233 68.4677 48.2634 70.2194 48.3342C76.6004 49.7394 81.6799 49.9573 88.0554 50.5237C98.3847 51.4388 92.0861 56.3625 86.4464 58.1708C65.1619 64.9954 51.3785 53.2961 34.3442 43.8843C28.1499 40.4638 21.1869 38.7373 14.3226 37.0542C12.3622 36.5749 0.934667 34.6959 0.511831 34.1349C0.451426 34.0532 0.539288 32.1686 0.594202 32.0815C2.14826 29.6632 8.99052 30.4584 11.4616 30.905C13.1036 31.1991 17.3649 31.8527 17.5076 33.6229L18.0403 33.6229C17.7657 31.9998 19.5504 32.5172 20.797 32.539C25.2505 32.6043 29.0725 34.8919 33.4272 34.7122C31.637 31.9453 28.8583 29.9355 26.8485 27.3538C25.2944 25.3549 19.5175 17.4246 23.5262 15.9377C24.6904 15.5074 31.1482 20.3549 32.274 21.4333C33.3997 22.5118 35.2942 25.7797 36.1564 26.3026C37.1558 26.9072 36.8757 26.4388 37.2711 26.003C38.1497 25.0335 37.7653 24.429 37.8203 23.2797C38.7483 21.624 38.4353 18.9823 38.4628 17.0542C38.4792 16.2209 39.2425 15.5183 37.8203 15.1098L37.8367 15.1043ZM133.749 9.10217L130.46 9.65228L130.647 10.7525L133.936 10.2024L133.749 9.10217ZM152.052 11.8473C146.253 9.64684 140.531 9.91917 134.485 9.12396L136.127 9.66862L135.034 10.7471C138.543 10.7634 142.804 10.1697 146.138 11.3407C146.506 11.4715 146.522 12.2612 146.956 12.3647C147.835 12.5826 151.81 13.2307 152.052 11.8473ZM128.445 9.66318C127.451 8.66644 127.291 10.7852 127.044 10.7797C126.479 10.7688 125.759 10.1425 124.903 10.2078C123.859 10.2895 106.43 16.2046 105.243 16.88C104.639 17.2231 103.882 17.6316 103.733 18.3723C107.149 18.3505 110.504 16.003 113.371 15.137C115.924 14.3636 121.19 13.9279 123.079 12.9203C123.733 12.5717 123.859 11.5259 124.738 11.1392C125.704 10.7144 126.786 11.5096 127.527 11.3462C127.835 11.2754 128.516 9.73943 128.445 9.66862L128.445 9.66318ZM152.332 12.9257L152.332 13.4704C152.689 13.2906 152.689 13.1054 152.332 12.9257ZM231.677 15.6545C218.294 18.1871 204.852 23.5303 193.792 31.4442C207.663 32.1033 219.03 23.6174 230.332 17.3102C231.084 16.8908 231.924 16.8527 231.677 15.6545ZM103.459 16.7383L103.459 17.283C103.816 17.1033 103.816 16.9181 103.459 16.7383ZM102.63 17.8331C102.102 17.2503 100.4 18.9497 100.988 19.4616C101.927 20.2841 103.453 18.7536 102.63 17.8331ZM99.6148 18.3723L99.6148 18.917C99.9717 18.7372 99.9717 18.5521 99.6148 18.3723ZM96.0399 22.7351C93.069 22.2612 94.2057 23.307 93.2997 25.4529C94.8318 25.4094 96.4298 24.4616 96.0399 22.7351ZM220.151 28.1762C222.177 27.7677 223.687 27.0107 225.642 26.5368C223.929 23.5793 222.907 28.0401 220.151 27.0869C220.151 26.722 220.173 26.3625 220.151 25.9976L219.612 25.9976L219.069 28.454C219.376 28.9606 219.711 28.2634 220.156 28.1762L220.151 28.1762ZM216.922 28.6501C217.29 28.9606 220.194 26.9508 218.212 26.5423C217.125 26.3189 214.945 27.6697 214.105 28.454C215.741 29.8048 215.549 27.1632 216.57 27.6261C217.108 27.8712 216.718 28.4758 216.916 28.6501L216.922 28.6501ZM46.6175 28.1817C45.8487 27.7895 45.1513 28.5248 45.5247 28.7155C46.2935 29.1076 46.9909 28.3723 46.6175 28.1817ZM217.399 30.3603C216.631 29.9682 215.933 30.7035 216.307 30.8941C217.075 31.2863 217.773 30.551 217.399 30.3603ZM214.105 31.4497C213.424 31.0956 212.194 32.3102 212.463 32.5281L214.105 33.0782L214.105 31.4497ZM217.13 31.4442L217.13 31.9889C217.487 31.8091 217.487 31.624 217.13 31.4442ZM156.445 36.3516L154.254 36.3516C153.59 36.6512 156.143 37.7351 156.445 37.4355L156.445 36.3516ZM157.823 36.3462L157.823 36.8908C158.18 36.7111 158.18 36.5259 157.823 36.3462ZM161.151 38.2253L159.196 37.4355L158.642 39.6142L163.029 39.6142L161.146 38.2307L161.151 38.2253ZM120.674 39.1621C120.603 39.0858 118.972 38.7046 118.571 38.7972C119.966 39.625 119.433 43.0891 121.306 42.8821C120.888 42.1305 120.888 39.3854 120.674 39.1621ZM157.274 38.5248L157.274 39.0695C157.631 38.8898 157.631 38.7046 157.274 38.5248ZM164.133 40.7035C164.528 39.941 163.787 39.2492 163.595 39.6196C163.199 40.3821 163.941 41.0738 164.133 40.7035ZM165.978 40.4856C165.786 38.563 164.259 40.6654 164.688 41.2427C165.116 41.82 170.695 43.4867 171.821 42.8767L165.973 40.4856L165.978 40.4856ZM158.373 40.7035L158.373 41.2481C158.729 41.0684 158.729 40.8832 158.373 40.7035ZM128.445 42.3429C127 42.0706 127.297 42.6534 127.352 43.966L127.89 43.966L128.445 42.3429ZM130.916 42.3375L130.916 42.8821C131.273 42.7024 131.273 42.5172 130.916 42.3375ZM130.081 42.8985C129.471 42.2993 128.417 43.3669 128.994 43.966C129.12 44.0967 130.328 44.1403 130.811 44.4671C131.893 45.1915 131.042 47.0869 132.832 46.6948C133.118 43.1871 131.185 44.4943 130.218 43.8298C129.949 43.6447 130.147 42.9638 130.075 42.893L130.081 42.8985ZM179.437 44.5978C179.262 44.4453 175.632 44.0205 174.863 43.9115C174.034 43.7972 173.644 43.1436 172.925 44.2438C174.781 44.2002 175.989 46.4115 176.296 46.5913C176.461 46.6839 179.207 46.0684 180.063 46.6893C179.63 46.1719 179.619 44.7558 179.437 44.5978ZM46.299 45.9105C46.0793 45.6762 46.0024 45.3821 46.0628 45.0662L45.5302 45.0662L45.5302 47.2394C46.5625 47.4518 47.842 47.2394 47.1611 46.161C47.1336 46.1229 46.568 46.1991 46.299 45.9105ZM197.081 48.8734C196.906 48.7046 195.428 49.1893 194.819 49.1131C192.639 48.8298 190.31 48.9551 188.718 48.7372C185.906 48.3505 183.292 47.2394 180.624 46.417C181.777 48.6229 185.681 49.0858 188.031 49.4072C190.596 49.7612 193.166 50.0989 195.247 49.9845C195.999 49.941 196.801 49.9137 197.367 50.4911C197.46 50.2024 197.142 48.9224 197.081 48.868L197.081 48.8734ZM52.2626 48.1436C51.9935 47.9693 52.1418 47.2721 52.1033 47.2449C51.1973 46.6131 49.9068 51.5096 54.3109 49.4235L53.7617 51.0521C55.0632 51.0847 57.9077 52.4518 58.704 50.7743C59.1049 49.9355 56.2054 49.2329 55.5574 49.0041C54.5525 48.6501 52.8502 48.5194 52.2681 48.1436L52.2626 48.1436ZM206.971 47.2449L206.373 48.6338L205.324 49.4126L206.966 47.2449L206.971 47.2449ZM47.9958 47.7841L47.9958 48.3288C48.3527 48.149 48.3527 47.9638 47.9958 47.7841ZM199.827 49.429L198.191 48.8789C197.916 50.3113 198.504 50.0172 199.827 49.9627L199.827 49.429ZM204.769 49.4235C204 49.0314 203.303 49.7667 203.676 49.9573C204.445 50.3494 205.143 49.6142 204.769 49.4235ZM66.941 52.1468C64.739 51.9508 64.3491 50.7035 63.6407 53.2253C64.9642 52.6752 65.3321 54.2111 65.689 54.2982C67.1332 54.6468 71.7131 55.502 71.8778 53.4976L66.3864 53.2253L66.941 52.1468ZM78.4016 54.3745C77.9238 53.9878 76.6224 54.6795 75.9854 54.6033C74.7772 54.4562 72.6027 53.0401 71.8833 54.8538C72.9102 54.9355 78.7365 56.1719 79.0166 55.9431C79.0825 55.8887 78.4675 54.4235 78.4016 54.3691L78.4016 54.3745Z" fill="#605F23"/>
<path d="M97.693 16.7382L97.693 18.3722C96.8199 18.2687 95.8425 18.4375 94.9474 18.3776C94.6508 19.3743 96.4849 18.59 96.5948 19.4615C95.6448 19.8155 94.1127 19.5269 93.2945 19.8264C92.1303 20.2567 90.1918 22.8547 88.9068 21.6401C91.6031 19.9027 93.1352 17.6151 96.5948 16.7382C96.9023 16.6619 97.3416 16.7926 97.693 16.7382Z" fill="#605F23"/>
<path d="M59.8025 35.2569C59.2699 38.0891 52.4057 37.5172 50.4672 36.8909C51.5929 36.7329 52.3507 36.4933 53.2129 36.3462C55.3875 35.9758 57.6609 35.7743 59.8025 35.2569Z" fill="#605F23"/>
<path d="M152.058 39.6142C152.151 39.6305 152.722 39.1349 153.326 39.2166C154.49 39.3745 155.556 40.502 156.742 39.6578L157.006 42.3375C155.402 41.4769 153.052 41.2373 152.063 39.6142L152.058 39.6142Z" fill="#605F23"/>
<path d="M251.452 12.9257C251.995 15.7362 248.492 15.5564 247.059 16.1937L247.333 13.4649C247.943 16.0738 249.793 12.9802 251.452 12.9257Z" fill="#605F23"/>
<path d="M20.8138 32.5336C19.5728 32.5172 17.7881 31.9943 18.0572 33.6174L17.5245 33.6174C17.3817 31.8473 13.1204 31.1937 11.4785 30.8996C14.4329 31.0793 18.2713 30.9867 20.8138 32.5336Z" fill="#605F23"/>
<path d="M131.191 30.3549C130.136 30.3549 128.324 31.063 126.792 30.3549L126.528 31.4442C126.056 29.685 124.568 30.4039 122.953 30.3495C124.985 29.4399 129.043 29.429 131.191 30.3495L131.191 30.3549Z" fill="#605F23"/>
<path d="M189.399 54.32C185.38 54.3963 184.226 54.0096 180.613 53.2307C182.557 52.1904 183.562 53.5956 184.754 53.7536C186.258 53.9496 188.235 53.2361 189.399 54.32Z" fill="#605F23"/>
<path d="M98.7915 15.1043C99.39 14.6904 99.7634 14.3963 100.439 14.015C101.29 16.161 102.41 16.5204 99.6097 17.8113L98.7915 15.1043Z" fill="#605F23"/>
<path d="M179.515 37.98C178.043 38.0236 176.352 37.3972 176.769 39.0693C175.583 38.7861 173.458 38.5955 172.925 37.4408L179.515 37.98Z" fill="#605F23"/>
<path d="M37.8367 23.2743C37.7818 24.4235 38.1662 25.0281 37.2876 25.9976C37.6116 22.6915 36.5847 18.759 37.8367 15.649C37.7214 18.1762 37.9575 20.747 37.8367 23.2743Z" fill="#605F23"/>
<path d="M49.369 35.8015C49.9786 35.8287 51.9279 36.9181 53.2129 36.3462C52.3507 36.4933 51.5929 36.7329 50.4672 36.8909C49.0175 37.0924 47.5624 37.4137 46.0742 37.43C46.4037 36.3897 48.4135 35.7579 49.369 35.8015Z" fill="#605F23"/>
<path d="M37.8367 23.2743C37.9575 20.747 37.7214 18.1762 37.8367 15.649C37.8477 15.4693 37.8312 15.2841 37.8367 15.1043C39.259 15.5128 38.4961 16.2154 38.4796 17.0487C38.4466 18.9769 38.7648 21.6185 37.8367 23.2743Z" fill="#605F23"/>
<path d="M70.2362 48.3287C68.4845 48.2579 65.6839 48.3178 64.7448 46.6947C66.557 47.1631 68.6876 47.9856 70.2362 48.3287Z" fill="#605F23"/>
<path d="M97.693 16.7382C97.3416 16.7926 96.9023 16.6619 96.5948 16.7382C96.7705 16.1391 97.2265 15.954 97.6932 15.649L97.693 16.7382Z" fill="#605F23"/>
<path d="M64.1957 46.6948L62.5483 46.1501C63.1908 46.3244 63.8663 46.6076 64.1957 46.6948Z" fill="#605F23"/>
<path d="M234.978 9.65774L234.698 10.197L233.879 9.65774C234.247 9.6523 234.61 9.65774 234.978 9.65774Z" fill="#605F23"/>
<path d="M128.445 9.66318C128.51 9.72854 127.83 11.2698 127.528 11.3406C126.787 11.5095 125.705 10.7088 124.738 11.1337C123.86 11.5204 123.733 12.5661 123.08 12.9147C121.191 13.9223 115.925 14.3581 113.371 15.1315C110.51 15.9975 107.149 18.3504 103.734 18.3668C103.888 17.626 104.64 17.223 105.244 16.8744C106.425 16.199 123.86 10.284 124.903 10.2023C125.76 10.1369 126.479 10.7687 127.045 10.7742C127.292 10.7742 127.457 8.66089 128.445 9.65762L128.445 9.66318Z" fill="#605F23"/>
<path d="M152.052 11.8473C151.81 13.2307 147.829 12.5826 146.956 12.3647C146.522 12.2558 146.511 11.4715 146.138 11.3407C142.804 10.1697 138.543 10.7634 135.034 10.7471L136.127 9.66862L134.485 9.12396C140.537 9.91917 146.253 9.64684 152.052 11.8473Z" fill="#605F23"/>
<path d="M97.693 18.3722C99.7029 18.6118 99.829 21.4821 102.081 21.1009C102.278 22.0159 101.586 21.4712 101.334 21.6401C100.175 22.3917 104.123 23.2904 104.277 23.8187C103.722 23.993 103.179 24.1837 102.63 24.3634C102.701 23.3721 99.6588 23.2087 99.1261 23.3067C98.7308 23.3775 98.8241 24.042 98.3903 24.3253C98.1761 24.4614 97.7972 24.2762 97.6874 24.3634C98.2585 23.334 97.8412 21.8579 99.3348 22.1847L99.873 21.9124L99.3348 21.6401C99.1536 21.6401 98.9669 21.6455 98.7857 21.6401C99.0932 19.81 97.951 20.7795 96.5891 21.0954C96.342 20.1314 96.644 19.8917 96.5891 19.4614C96.4848 18.59 94.6452 19.3743 94.9417 18.3775C95.8313 18.4375 96.8088 18.2686 97.6874 18.3721L97.693 18.3722Z" fill="#605F23"/>
<path d="M197.081 48.8734C197.142 48.9279 197.46 50.2078 197.367 50.4965C196.801 49.9192 196 49.9464 195.247 49.99C193.172 50.1098 190.596 49.7667 188.032 49.4126C185.681 49.0858 181.777 48.6283 180.624 46.4224C183.293 47.2449 185.906 48.356 188.718 48.7427C190.311 48.9606 192.639 48.8353 194.819 49.1185C195.429 49.2002 196.906 48.71 197.081 48.8789L197.081 48.8734Z" fill="#605F23"/>
<path d="M52.2626 48.1436C52.8447 48.5194 54.5472 48.6445 55.5521 49.004C56.2001 49.2328 59.0941 49.9354 58.6987 50.7741C57.9024 52.4517 55.0579 51.0846 53.7564 51.0519L54.3056 49.4234C49.907 51.5094 51.1975 46.6184 52.098 47.2447C52.1365 47.272 51.9882 47.9691 52.2573 48.1434L52.2626 48.1436Z" fill="#605F23"/>
<path d="M66.941 52.1468L66.3864 53.2253L71.8778 53.4976C71.7076 55.502 67.1332 54.6468 65.689 54.2982C65.3376 54.2111 64.9696 52.6752 63.6407 53.2253C64.3491 50.7035 64.739 51.9508 66.941 52.1468Z" fill="#605F23"/>
<path d="M179.437 44.5978C179.619 44.7558 179.63 46.1719 180.063 46.6893C179.207 46.0738 176.461 46.6893 176.296 46.5913C175.989 46.417 174.781 44.2002 172.925 44.2438C173.644 43.1436 174.034 43.7917 174.863 43.9115C175.632 44.0205 179.262 44.4453 179.437 44.5978Z" fill="#605F23"/>
<path d="M102.635 24.3636C100.658 25.0008 98.4121 25.3821 96.5945 25.9976C96.5011 24.8919 97.0942 24.832 97.6927 24.3636C97.8026 24.2764 98.1815 24.4616 98.3956 24.3254C98.8349 24.0422 98.7361 23.3832 99.1315 23.3069C99.6587 23.2089 102.701 23.3723 102.635 24.3636Z" fill="#605F23"/>
<path d="M165.978 40.4856L171.827 42.8765C170.701 43.4811 165.105 41.7927 164.693 41.2426C164.281 40.6924 165.792 38.5628 165.984 40.4855L165.978 40.4856Z" fill="#605F23"/>
<path d="M94.9475 34.1675C94.3984 36.0194 93.1354 34.6795 92.751 34.7122C89.6538 34.9899 87.0729 35.1261 83.9648 35.2568L90.8345 34.1729C92.1854 34.0204 93.6131 34.3091 94.9475 34.1675Z" fill="#605F23"/>
<path d="M78.4016 54.3745C78.4675 54.429 79.0883 55.8939 79.017 55.9484C78.7369 56.1717 72.9105 54.9408 71.8836 54.8591C72.603 53.0399 74.7721 54.4615 75.9857 54.6085C76.6227 54.6848 77.9242 53.9931 78.4019 54.3798L78.4016 54.3745Z" fill="#605F23"/>
<path d="M92.751 34.7122C93.2782 36.2808 89.7966 36.0085 88.9729 36.0194C88.1492 36.0303 83.9648 35.9485 83.9648 35.2568C87.0729 35.1261 89.6538 34.9899 92.751 34.7122Z" fill="#605F23"/>
<path d="M220.151 27.0869C222.907 28.0346 223.929 23.5739 225.642 26.5368C223.687 27.0107 222.177 27.7677 220.151 28.1762C220.151 27.8113 220.151 27.4518 220.151 27.0869Z" fill="#605F23"/>
<path d="M96.0399 22.7351C96.4298 24.4562 94.8318 25.4094 93.2997 25.4529C94.2112 23.3124 93.069 22.2667 96.0399 22.7351Z" fill="#605F23"/>
<path d="M161.151 38.2253L163.035 39.6087L158.648 39.6087L159.202 37.4355L161.151 38.2253Z" fill="#605F23"/>
<path d="M120.674 39.1621C120.888 39.3854 120.888 42.1359 121.306 42.8821C119.439 43.0837 119.966 39.6196 118.571 38.7972C118.972 38.7046 120.597 39.0858 120.674 39.1621Z" fill="#605F23"/>
<path d="M130.081 42.8985C130.147 42.9638 129.955 43.6501 130.224 43.8352C131.191 44.4943 133.124 43.1925 132.838 46.7002C131.048 47.0923 131.899 45.1915 130.817 44.4725C130.328 44.1457 129.12 44.1021 129 43.9714C128.423 43.3723 129.477 42.2993 130.087 42.9039L130.081 42.8985Z" fill="#605F23"/>
<path d="M216.922 28.6501C216.724 28.4813 217.114 27.8711 216.576 27.626C215.555 27.1631 215.747 29.7992 214.11 28.4539C214.951 27.6696 217.131 26.3188 218.218 26.5422C220.2 26.9452 217.295 28.9605 216.927 28.65L216.922 28.6501Z" fill="#605F23"/>
<path d="M133.749 9.09585L130.457 9.64469L130.642 10.7404L133.935 10.1916L133.749 9.09585Z" fill="#605F23"/>
<path d="M46.299 45.9105C46.568 46.1991 47.1336 46.1229 47.1611 46.161C47.842 47.234 46.5625 47.4464 45.5302 47.2394L45.5302 45.0662L46.0685 45.0661C46.0081 45.3821 46.085 45.6762 46.3047 45.9104L46.299 45.9105Z" fill="#605F23"/>
<path d="M100.988 19.4616C101.927 20.2841 103.453 18.7536 102.63 17.8331C102.102 17.2503 100.4 18.9497 100.988 19.4616Z" fill="#605F23"/>
<path d="M96.5944 21.0957C97.9563 20.7798 99.0985 19.8103 98.791 21.6403C97.9892 21.6131 97.3083 21.8691 96.5999 22.185C96.5395 21.8364 96.6713 21.3952 96.5944 21.0957Z" fill="#605F23"/>
<path d="M214.105 31.4497L214.105 33.0782L212.463 32.5281C212.199 32.3048 213.429 31.0956 214.105 31.4497Z" fill="#605F23"/>
<path d="M156.445 36.3516L156.445 37.4355C156.143 37.7351 153.59 36.6512 154.254 36.3516L156.445 36.3516Z" fill="#605F23"/>
<path d="M128.445 42.3429L127.89 43.966L127.352 43.966C127.297 42.6534 127 42.0706 128.445 42.3429Z" fill="#605F23"/>
<path d="M199.827 49.429L199.827 49.9627C198.504 50.0172 197.916 50.3113 198.191 48.8789L199.827 49.429Z" fill="#605F23"/>
<path d="M220.151 27.0869C220.151 27.4518 220.151 27.8113 220.151 28.1762C219.706 28.2634 219.371 28.9605 219.063 28.454L219.607 25.9975L220.145 25.9975C220.173 26.357 220.145 26.7219 220.145 27.0869L220.151 27.0869Z" fill="#605F23"/>
<path d="M206.971 47.2449L205.324 49.4126L206.373 48.6338L206.971 47.2449Z" fill="#605F23"/>
<path d="M163.595 39.6196C163.199 40.3821 163.941 41.0738 164.133 40.7035C164.528 39.941 163.787 39.2492 163.595 39.6196Z" fill="#605F23"/>
<path d="M203.676 49.9573C204.445 50.3494 205.143 49.6142 204.769 49.4235C204 49.0314 203.303 49.7667 203.676 49.9573Z" fill="#605F23"/>
<path d="M216.307 30.8941C217.075 31.2863 217.773 30.551 217.399 30.3603C216.631 29.9682 215.933 30.7035 216.307 30.8941Z" fill="#605F23"/>
<path d="M251.452 12.9257C249.793 12.9802 247.943 16.0738 247.333 13.4649L247.059 16.1937C245.362 16.9508 244.17 17.9094 242.116 18.3723C242.051 18.3887 241.666 17.7623 240.892 17.8985C239.986 18.0564 239.332 19.1076 238.273 18.917L240.019 16.8691L241.562 17.283C241.501 15.1316 240.502 12.7351 238.284 12.6697L238.816 10.7525C237.432 10.1044 237.795 11.9508 237.454 11.8473C236.697 11.6131 235.401 10.6872 235.521 9.6632C237.405 9.68499 239.431 9.51069 241.282 9.67409C242.847 9.81026 248.184 10.5074 249.415 10.8669C250.041 11.0466 251.337 12.3429 251.452 12.9366L251.452 12.9257ZM246.235 14.5597L246.235 15.1044C246.592 14.9246 246.592 14.7394 246.235 14.5597Z" fill="#605F23"/>
<path d="M152.332 13.4704C152.689 13.2906 152.689 13.1054 152.332 12.9257L152.332 13.4704Z" fill="#605F23"/>
<path d="M99.6148 18.917C99.9717 18.7372 99.9717 18.5521 99.6148 18.3723L99.6148 18.917Z" fill="#605F23"/>
<path d="M99.3405 22.185L99.3405 21.6403L99.8787 21.9127L99.3405 22.185Z" fill="#605F23"/>
<path d="M217.13 31.9889C217.487 31.8091 217.487 31.624 217.13 31.4442L217.13 31.9889Z" fill="#605F23"/>
<path d="M157.823 36.8908C158.18 36.7111 158.18 36.5259 157.823 36.3462L157.823 36.8908Z" fill="#605F23"/>
<path d="M157.274 39.0695C157.631 38.8898 157.631 38.7046 157.274 38.5248L157.274 39.0695Z" fill="#605F23"/>
<path d="M158.373 41.2481C158.729 41.0684 158.729 40.8832 158.373 40.7035L158.373 41.2481Z" fill="#605F23"/>
<path d="M130.916 42.8821C131.273 42.7024 131.273 42.5172 130.916 42.3375L130.916 42.8821Z" fill="#605F23"/>
<path d="M47.9958 48.3288C48.3527 48.149 48.3527 47.9638 47.9958 47.7841L47.9958 48.3288Z" fill="#605F23"/>
<path d="M103.459 17.283C103.816 17.1033 103.816 16.9181 103.459 16.7383L103.459 17.283Z" fill="#605F23"/>
<path d="M246.235 15.1044C246.592 14.9246 246.592 14.7394 246.235 14.5597L246.235 15.1044Z" fill="#605F23"/>
</svg>
