<svg id='plus' width="102" height="102" viewBox="0 0 102 102" fill="none" xmlns="http://www.w3.org/2000/svg">
<path d="M58.8737 5.66247C58.8847 6.09303 57.5103 7.1915 57.698 8.11885C60.5518 19.9371 59.5747 31.9761 59.8728 44.0096C72.9165 46.1569 87.158 42.1825 99.6717 46.1734C102.978 49.5572 101.217 53.1065 96.851 53.9511C90.1222 55.2593 77.5643 53.94 70.2007 54.0946C67.2254 54.1553 63.5712 56.0321 60.4359 53.9455L58.6695 94.7932C58.3714 101.45 51.4494 104.31 48.8881 97.5863C49.1586 86.8721 48.7777 76.2131 48.7998 65.5154C48.8219 54.8177 52.9177 54.4423 40.2935 54.6907C31.6327 54.8619 13.1243 57.6715 5.77723 56.1535C-2.07215 54.5307 -1.75751 45.362 6.34027 44.5947L49.9535 44.5671C50.8311 43.5791 50.5275 41.4539 50.5165 40.1401C50.4061 30.5906 49.2138 20.6657 49.4898 11.1603C49.5229 10.0232 49.8044 4.79584 49.9811 4.2328C50.2295 3.45449 53.8009 0.733149 54.0713 0.749709C54.4136 0.771789 58.8627 5.28711 58.8737 5.65143V5.66247Z" fill="#605F23"/>
</svg>
