<svg width="38" height="43" viewBox="0 0 38 43" fill="none" xmlns="http://www.w3.org/2000/svg">
<path d="M15.9558 5.90512L17.9544 7.90416C16.9817 6.17923 17.2149 5.01591 17.6146 3.21744C18.0143 1.41897 20.2594 -1.23528 19.4267 1.57274L20.6192 0.563189C23.5571 4.95574 21.6984 12.6377 28.6669 15.5527C31.1518 16.589 38.3334 16.5154 37.987 20.2662C37.7472 22.8201 28.1472 23.7093 25.2759 26.9586C22.278 30.355 20.5459 41.4734 19.9463 42.0083C17.2082 44.462 15.2363 32.8287 14.7167 31.525C11.1525 22.5259 7.31518 24.4113 -0.00634766 20.2862C1.33271 16.355 3.62444 17.652 5.78958 16.8297C11.5589 14.6367 13.8239 11.5613 15.9491 5.90512H15.9558Z" fill="#702833"/>
</svg>
